<svg width="33" height="36" viewBox="0 0 33 36" fill="none" xmlns="http://www.w3.org/2000/svg">
<g filter="url(#filter0_bdi_1223_2574)">
<path d="M13.4961 24.3874C12.7575 24.3874 12.2006 24.1999 11.8256 23.8249C11.4506 23.4555 11.2631 22.893 11.2631 22.1374L14.033 19.6999C14.1921 19.5692 14.3512 19.4697 14.5103 19.4016C14.6694 19.3334 14.8285 19.2993 14.9876 19.2993C15.1637 19.2993 15.337 19.3334 15.5075 19.4016C15.6779 19.4641 15.8427 19.5692 16.0018 19.7169L17.3398 20.9271L20.6978 17.9527C20.8683 17.7993 21.0444 17.6885 21.2262 17.6203C21.408 17.5521 21.604 17.518 21.8143 17.518C22.0131 17.518 22.2063 17.555 22.3938 17.6288C22.587 17.7027 22.766 17.8135 22.9308 17.9612L26.8853 21.6771V22.1544C26.8853 22.9044 26.695 23.4641 26.3143 23.8334C25.9393 24.2027 25.3853 24.3874 24.6523 24.3874H13.4961ZM16.7773 18.1402C16.2773 18.1402 15.854 17.9641 15.5075 17.6118C15.1609 17.2538 14.9876 16.8277 14.9876 16.3334C14.9876 15.8504 15.1609 15.4328 15.5075 15.0805C15.854 14.7226 16.2773 14.5436 16.7773 14.5436C17.1012 14.5436 17.3967 14.626 17.6637 14.7908C17.9364 14.9555 18.1523 15.1743 18.3114 15.447C18.4762 15.7197 18.5586 16.0152 18.5586 16.3334C18.5586 16.8277 18.3825 17.2538 18.0302 17.6118C17.6836 17.9641 17.266 18.1402 16.7773 18.1402ZM8.97905 20.9697C8.05859 20.9697 7.36257 20.7368 6.89098 20.2709C6.41939 19.805 6.18359 19.1146 6.18359 18.1999V10.1033C6.18359 9.19417 6.41939 8.50667 6.89098 8.04076C7.36257 7.56917 8.05859 7.33337 8.97905 7.33337H20.6126C21.533 7.33337 22.229 7.56917 22.7006 8.04076C23.1779 8.50667 23.4165 9.19417 23.4165 10.1033V12.0294H21.7376V10.2567C21.7376 9.8419 21.6296 9.53224 21.4137 9.32769C21.2035 9.11747 20.9023 9.01235 20.5103 9.01235H9.08132C8.68359 9.01235 8.37962 9.11747 8.16939 9.32769C7.96484 9.53224 7.86257 9.8419 7.86257 10.2567V18.0635C7.86257 18.4726 7.96484 18.7822 8.16939 18.9925C8.37962 19.197 8.68359 19.2993 9.08132 19.2993H11.2205V20.9697H8.97905ZM13.2915 25.0266C12.3711 25.0266 11.6751 24.7908 11.2035 24.3192C10.7319 23.8533 10.4961 23.1658 10.4961 22.2567V14.1601C10.4961 13.2453 10.7319 12.555 11.2035 12.0891C11.6751 11.6231 12.3711 11.3902 13.2915 11.3902H24.9251C25.8398 11.3902 26.533 11.626 27.0046 12.0976C27.4819 12.5635 27.7205 13.251 27.7205 14.1601V22.2567C27.7205 23.1658 27.4819 23.8533 27.0046 24.3192C26.533 24.7908 25.8398 25.0266 24.9251 25.0266H13.2915ZM13.3938 23.3476H24.8143C25.2063 23.3476 25.5103 23.2453 25.7262 23.0408C25.9421 22.8362 26.0501 22.5266 26.0501 22.1118V14.305C26.0501 13.8902 25.9421 13.5805 25.7262 13.376C25.5103 13.1658 25.2063 13.0606 24.8143 13.0606H13.3938C12.9961 13.0606 12.6921 13.1658 12.4819 13.376C12.2717 13.5805 12.1665 13.8902 12.1665 14.305V22.1118C12.1665 22.5266 12.2717 22.8362 12.4819 23.0408C12.6921 23.2453 12.9961 23.3476 13.3938 23.3476Z" fill="white"/>
</g>
<defs>
<filter id="filter0_bdi_1223_2574" x="-15.0439" y="-16" width="64" height="64" filterUnits="userSpaceOnUse" color-interpolation-filters="sRGB">
<feFlood flood-opacity="0" result="BackgroundImageFix"/>
<feGaussianBlur in="BackgroundImageFix" stdDeviation="8"/>
<feComposite in2="SourceAlpha" operator="in" result="effect1_backgroundBlur_1223_2574"/>
<feColorMatrix in="SourceAlpha" type="matrix" values="0 0 0 0 0 0 0 0 0 0 0 0 0 0 0 0 0 0 127 0" result="hardAlpha"/>
<feOffset dy="4"/>
<feGaussianBlur stdDeviation="2"/>
<feComposite in2="hardAlpha" operator="out"/>
<feColorMatrix type="matrix" values="0 0 0 0 0 0 0 0 0 0 0 0 0 0 0 0 0 0 0.25 0"/>
<feBlend mode="normal" in2="effect1_backgroundBlur_1223_2574" result="effect2_dropShadow_1223_2574"/>
<feBlend mode="normal" in="SourceGraphic" in2="effect2_dropShadow_1223_2574" result="shape"/>
<feColorMatrix in="SourceAlpha" type="matrix" values="0 0 0 0 0 0 0 0 0 0 0 0 0 0 0 0 0 0 127 0" result="hardAlpha"/>
<feMorphology radius="1" operator="erode" in="SourceAlpha" result="effect3_innerShadow_1223_2574"/>
<feOffset dx="1" dy="1"/>
<feGaussianBlur stdDeviation="2.5"/>
<feComposite in2="hardAlpha" operator="arithmetic" k2="-1" k3="1"/>
<feColorMatrix type="matrix" values="0 0 0 0 1 0 0 0 0 1 0 0 0 0 1 0 0 0 0.32 0"/>
<feBlend mode="normal" in2="shape" result="effect3_innerShadow_1223_2574"/>
</filter>
</defs>
</svg>
