<svg width="33" height="36" viewBox="0 0 33 36" fill="none" xmlns="http://www.w3.org/2000/svg">
<g filter="url(#filter0_bdi_1223_2578)">
<path d="M9.6519 24.1402C8.73145 24.1402 8.03542 23.9072 7.56383 23.4413C7.09224 22.9754 6.85645 22.2879 6.85645 21.3788V10.9982C6.85645 10.0891 7.09224 9.40157 7.56383 8.93566C8.03542 8.46407 8.73145 8.22827 9.6519 8.22827H24.2428C25.1689 8.22827 25.8678 8.46407 26.3394 8.93566C26.811 9.40157 27.0468 10.0891 27.0468 10.9982V21.3788C27.0468 22.2879 26.811 22.9754 26.3394 23.4413C25.8678 23.9072 25.1689 24.1402 24.2428 24.1402H9.6519ZM9.75417 22.4697H24.1491C24.5411 22.4697 24.8422 22.3675 25.0525 22.1629C25.2627 21.9527 25.3678 21.643 25.3678 21.234V11.143C25.3678 10.734 25.2627 10.4271 25.0525 10.2226C24.8422 10.0124 24.5411 9.90725 24.1491 9.90725H9.75417C9.35645 9.90725 9.05247 10.0124 8.84224 10.2226C8.6377 10.4271 8.53542 10.734 8.53542 11.143V21.234C8.53542 21.643 8.6377 21.9527 8.84224 22.1629C9.05247 22.3675 9.35645 22.4697 9.75417 22.4697ZM15.4559 19.5209C15.3025 19.6118 15.1491 19.6516 14.9956 19.6402C14.8479 19.6232 14.7229 19.5663 14.6206 19.4697C14.5184 19.3675 14.4672 19.234 14.4672 19.0692V13.2993C14.4672 13.1345 14.5184 13.0038 14.6206 12.9072C14.7229 12.8107 14.8508 12.7567 15.0042 12.7453C15.1633 12.7283 15.3138 12.7624 15.4559 12.8476L20.1945 15.6516C20.3309 15.7311 20.4218 15.8419 20.4672 15.984C20.5127 16.1203 20.5127 16.2595 20.4672 16.4016C20.4275 16.5379 20.3366 16.6487 20.1945 16.734L15.4559 19.5209Z" fill="white"/>
</g>
<defs>
<filter id="filter0_bdi_1223_2578" x="-15.0439" y="-16" width="64" height="64" filterUnits="userSpaceOnUse" color-interpolation-filters="sRGB">
<feFlood flood-opacity="0" result="BackgroundImageFix"/>
<feGaussianBlur in="BackgroundImageFix" stdDeviation="8"/>
<feComposite in2="SourceAlpha" operator="in" result="effect1_backgroundBlur_1223_2578"/>
<feColorMatrix in="SourceAlpha" type="matrix" values="0 0 0 0 0 0 0 0 0 0 0 0 0 0 0 0 0 0 127 0" result="hardAlpha"/>
<feOffset dy="4"/>
<feGaussianBlur stdDeviation="2"/>
<feComposite in2="hardAlpha" operator="out"/>
<feColorMatrix type="matrix" values="0 0 0 0 0 0 0 0 0 0 0 0 0 0 0 0 0 0 0.25 0"/>
<feBlend mode="normal" in2="effect1_backgroundBlur_1223_2578" result="effect2_dropShadow_1223_2578"/>
<feBlend mode="normal" in="SourceGraphic" in2="effect2_dropShadow_1223_2578" result="shape"/>
<feColorMatrix in="SourceAlpha" type="matrix" values="0 0 0 0 0 0 0 0 0 0 0 0 0 0 0 0 0 0 127 0" result="hardAlpha"/>
<feMorphology radius="1" operator="erode" in="SourceAlpha" result="effect3_innerShadow_1223_2578"/>
<feOffset dx="1" dy="1"/>
<feGaussianBlur stdDeviation="2.5"/>
<feComposite in2="hardAlpha" operator="arithmetic" k2="-1" k3="1"/>
<feColorMatrix type="matrix" values="0 0 0 0 1 0 0 0 0 1 0 0 0 0 1 0 0 0 0.32 0"/>
<feBlend mode="normal" in2="shape" result="effect3_innerShadow_1223_2578"/>
</filter>
</defs>
</svg>
